<svg xmlns="http://www.w3.org/2000/svg" xmlns:xlink="http://www.w3.org/1999/xlink" width="500" zoomAndPan="magnify" viewBox="0 0 375 374.999991" height="500" preserveAspectRatio="xMidYMid meet" version="1.0"><defs><clipPath id="c13e658cfa"><path d="M 105.945312 104.074219 L 268.695312 104.074219 L 268.695312 259.324219 L 105.945312 259.324219 Z M 105.945312 104.074219 " clip-rule="nonzero"/></clipPath></defs><rect x="-37.5" width="450" fill="#ffffff" y="-37.499999" height="449.999989" fill-opacity="1"/><rect x="-37.5" width="450" fill="#ffffff" y="-37.499999" height="449.999989" fill-opacity="1"/><path fill="#f4f1e8" d="M 187.5 0 C 84.074219 0 0 84.148438 0 187.5 C 0 290.925781 84.074219 375 187.5 375 C 290.851562 375 375 290.925781 375 187.5 C 375 84.148438 290.851562 0 187.5 0 Z M 187.5 360.375 C 92.175781 360.375 14.625 282.824219 14.625 187.5 C 14.625 92.175781 92.175781 14.625 187.5 14.625 C 282.824219 14.625 360.375 92.175781 360.375 187.5 C 360.375 282.824219 282.824219 360.375 187.5 360.375 Z M 187.5 360.375 " fill-opacity="1" fill-rule="nonzero"/><path fill="#f4f1e8" d="M 187.5 24.375 C 97.574219 24.375 24.375 97.574219 24.375 187.5 C 24.375 277.425781 97.574219 350.625 187.5 350.625 C 277.425781 350.625 350.625 277.425781 350.625 187.5 C 350.625 97.574219 277.425781 24.375 187.5 24.375 Z M 187.5 24.375 " fill-opacity="1" fill-rule="nonzero"/><g clip-path="url(#c13e658cfa)"><path fill="#bd8f53" d="M 268.613281 161.273438 C 268.613281 155.390625 265.558594 150.28125 260.960938 147.382812 L 187.320312 104.078125 L 113.675781 147.382812 C 109.078125 150.28125 105.945312 155.390625 105.945312 161.273438 L 105.945312 242.976562 C 105.945312 252.003906 113.226562 259.316406 122.21875 259.316406 L 252.417969 259.316406 C 261.410156 259.316406 268.695312 252.003906 268.695312 242.976562 Z M 187.320312 202.125 L 120.101562 159.925781 L 187.320312 120.417969 L 254.535156 159.925781 Z M 187.320312 202.125 " fill-opacity="1" fill-rule="nonzero"/></g></svg>