<svg xmlns="http://www.w3.org/2000/svg" xmlns:xlink="http://www.w3.org/1999/xlink" width="500" zoomAndPan="magnify" viewBox="0 0 375 374.999991" height="500" preserveAspectRatio="xMidYMid meet" version="1.0"><defs><g/></defs><path fill="#085784" d="M 187.5 0 C 84.074219 0 0 84.148438 0 187.5 C 0 290.925781 84.074219 375 187.5 375 C 290.851562 375 375 290.925781 375 187.5 C 375 84.148438 290.851562 0 187.5 0 Z M 187.5 360.375 C 92.175781 360.375 14.625 282.824219 14.625 187.5 C 14.625 92.175781 92.175781 14.625 187.5 14.625 C 282.824219 14.625 360.375 92.175781 360.375 187.5 C 360.375 282.824219 282.824219 360.375 187.5 360.375 Z M 187.5 360.375 " fill-opacity="1" fill-rule="nonzero"/><path fill="#085784" d="M 187.5 24.375 C 97.574219 24.375 24.375 97.574219 24.375 187.5 C 24.375 277.425781 97.574219 350.625 187.5 350.625 C 277.425781 350.625 350.625 277.425781 350.625 187.5 C 350.625 97.574219 277.425781 24.375 187.5 24.375 Z M 187.5 24.375 " fill-opacity="1" fill-rule="nonzero"/><g fill="#f4f1e8" fill-opacity="1"><g transform="translate(76.667042, 225.72405)"><g><path d="M 34.25 -17.59375 C 34.25 -11.382812 39.316406 -8.109375 49.453125 -7.765625 L 48 0 L -5.375 0 L -6.203125 -1.96875 L -3.9375 -7.765625 C 2 -7.765625 6.550781 -8.816406 9.71875 -10.921875 C 12.894531 -13.023438 15.171875 -16.832031 16.546875 -22.34375 C 16.753906 -23.445312 17.066406 -24.65625 17.484375 -25.96875 C 29.898438 -76.1875 36.109375 -104.984375 36.109375 -112.359375 C 36.109375 -116.492188 34.625 -119.269531 31.65625 -120.6875 C 28.6875 -122.101562 24.789062 -122.914062 19.96875 -123.125 C 19.894531 -123.46875 19.804688 -123.945312 19.703125 -124.5625 C 19.597656 -125.1875 19.546875 -125.707031 19.546875 -126.125 C 19.546875 -128.050781 19.960938 -129.601562 20.796875 -130.78125 L 74.390625 -130.78125 L 72.109375 -123.125 C 66.867188 -123.050781 62.75 -121.820312 59.75 -119.4375 C 56.75 -117.0625 54.695312 -113.320312 53.59375 -108.21875 L 45.9375 -71.5 C 46.90625 -72.25 48.0625 -73.070312 49.40625 -73.96875 C 50.75 -74.875 52.144531 -75.875 53.59375 -76.96875 C 66.007812 -85.800781 76.5625 -93.648438 85.25 -100.515625 C 93.945312 -107.378906 98.296875 -112.15625 98.296875 -114.84375 C 98.296875 -117.1875 97.242188 -119.066406 95.140625 -120.484375 C 93.035156 -121.898438 90.707031 -122.742188 88.15625 -123.015625 L 89.8125 -130.78125 L 142.78125 -130.78125 L 140.390625 -123.125 C 136.804688 -122.84375 130.046875 -119.582031 120.109375 -113.34375 C 110.179688 -107.101562 101.046875 -100.460938 92.703125 -93.421875 C 84.359375 -86.390625 80.1875 -81.425781 80.1875 -78.53125 C 80.1875 -76.53125 82.789062 -70.785156 88 -61.296875 C 93.207031 -51.816406 99.394531 -40.90625 106.5625 -28.5625 L 111.328125 -20.375 C 113.597656 -16.238281 115.90625 -13.148438 118.25 -11.109375 C 120.601562 -9.078125 123.78125 -7.960938 127.78125 -7.765625 L 126.328125 0 L 80.796875 0 L 82.984375 -7.65625 C 85.460938 -7.863281 87.875 -8.519531 90.21875 -9.625 C 92.5625 -10.726562 93.734375 -12.3125 93.734375 -14.375 C 93.734375 -15.414062 91.472656 -20.625 86.953125 -30 C 82.441406 -39.382812 76.359375 -51.835938 68.703125 -67.359375 L 64.96875 -74.90625 L 43.34375 -60.015625 C 42.59375 -56.554688 41.421875 -52.175781 39.828125 -46.875 C 38.035156 -40.59375 36.65625 -35.226562 35.6875 -30.78125 C 34.726562 -26.332031 34.25 -21.9375 34.25 -17.59375 Z M 34.25 -17.59375 "/></g></g></g><g fill="#f4f1e8" fill-opacity="1"><g transform="translate(171.090051, 286.002651)"><g><path d="M 33.515625 -17.59375 C 33.515625 -22.070312 34.015625 -26.757812 35.015625 -31.65625 C 36.015625 -36.550781 37.484375 -42.863281 39.421875 -50.59375 L 42.21875 -61.96875 L 64.765625 -61.96875 L 66.9375 -55.765625 C 73.5625 -36.585938 78.476562 -23.476562 81.6875 -16.4375 C 84.894531 -9.40625 88.597656 -4.578125 92.796875 -1.953125 C 97.003906 0.660156 103.390625 1.96875 111.953125 1.96875 C 115.253906 1.96875 117.679688 0.847656 119.234375 -1.390625 C 120.785156 -3.640625 121.5625 -6.488281 121.5625 -9.9375 C 120.457031 -9.789062 119.597656 -9.71875 118.984375 -9.71875 C 111.460938 -9.71875 106.269531 -10.40625 103.40625 -11.78125 C 100.539062 -13.164062 97.898438 -16.617188 95.484375 -22.140625 C 93.078125 -27.660156 89.046875 -39.007812 83.390625 -56.1875 L 81.21875 -62.796875 C 93.425781 -64.242188 103.632812 -67.65625 111.84375 -73.03125 C 120.050781 -78.414062 124.15625 -86.523438 124.15625 -97.359375 C 124.15625 -107.222656 120.5 -114.601562 113.1875 -119.5 C 105.875 -124.394531 97.507812 -127.5 88.09375 -128.8125 C 78.675781 -130.125 68.347656 -130.78125 57.109375 -130.78125 L 21.109375 -130.78125 C 20.617188 -130.15625 20.21875 -129.410156 19.90625 -128.546875 C 19.601562 -127.691406 19.453125 -126.847656 19.453125 -126.015625 C 19.453125 -125.597656 19.625 -124.597656 19.96875 -123.015625 C 24.726562 -122.878906 28.640625 -122.035156 31.703125 -120.484375 C 34.773438 -118.929688 36.3125 -116.050781 36.3125 -111.84375 C 36.3125 -107.632812 33.757812 -94.457031 28.65625 -72.3125 C 23.550781 -50.175781 19.515625 -33.453125 16.546875 -22.140625 C 15.585938 -18.347656 14.242188 -15.378906 12.515625 -13.234375 C 10.796875 -11.097656 8.640625 -9.613281 6.046875 -8.78125 C 3.460938 -7.957031 0.132812 -7.546875 -3.9375 -7.546875 L -6.203125 -1.765625 L -5.375 0 L 49.875 0 L 51.53125 -4.34375 L 50.703125 -7.765625 C 45.941406 -7.765625 41.882812 -8.398438 38.53125 -9.671875 C 35.1875 -10.953125 33.515625 -13.59375 33.515625 -17.59375 Z M 63.734375 -123.21875 C 77.109375 -123.21875 87.46875 -121.269531 94.8125 -117.375 C 102.164062 -113.476562 105.84375 -107.320312 105.84375 -98.90625 C 105.84375 -92.5625 104.34375 -87.40625 101.34375 -83.4375 C 98.34375 -79.476562 92.375 -76.375 83.4375 -74.125 C 74.507812 -71.882812 61.421875 -70.765625 44.171875 -70.765625 L 55.96875 -123.125 Z M 63.734375 -123.21875 "/></g></g></g></svg>