<svg xmlns="http://www.w3.org/2000/svg" xmlns:xlink="http://www.w3.org/1999/xlink" width="500" zoomAndPan="magnify" viewBox="0 0 375 374.999991" height="500" preserveAspectRatio="xMidYMid meet" version="1.0"><defs><clipPath id="4c9b71eb12"><path d="M 220 198 L 265.886719 198 L 265.886719 248 L 220 248 Z M 220 198 " clip-rule="nonzero"/></clipPath><clipPath id="9e518b44ba"><path d="M 131 100.628906 L 178 100.628906 L 178 150 L 131 150 Z M 131 100.628906 " clip-rule="nonzero"/></clipPath></defs><rect x="-37.5" width="450" fill="#ffffff" y="-37.499999" height="449.999989" fill-opacity="1"/><rect x="-37.5" width="450" fill="#ffffff" y="-37.499999" height="449.999989" fill-opacity="1"/><path fill="#f4f1e8" d="M 187.5 0 C 84.074219 0 0 84.148438 0 187.5 C 0 290.925781 84.074219 375 187.5 375 C 290.851562 375 375 290.925781 375 187.5 C 375 84.148438 290.851562 0 187.5 0 Z M 187.5 360.375 C 92.175781 360.375 14.625 282.824219 14.625 187.5 C 14.625 92.175781 92.175781 14.625 187.5 14.625 C 282.824219 14.625 360.375 92.175781 360.375 187.5 C 360.375 282.824219 282.824219 360.375 187.5 360.375 Z M 187.5 360.375 " fill-opacity="1" fill-rule="nonzero"/><path fill="#f4f1e8" d="M 187.5 24.375 C 97.574219 24.375 24.375 97.574219 24.375 187.5 C 24.375 277.425781 97.574219 350.625 187.5 350.625 C 277.425781 350.625 350.625 277.425781 350.625 187.5 C 350.625 97.574219 277.425781 24.375 187.5 24.375 Z M 187.5 24.375 " fill-opacity="1" fill-rule="nonzero"/><path fill="#bd8f53" d="M 211.5 212.109375 C 211.5 212.109375 198.007812 235.695312 166.589844 201.636719 C 133.648438 165.917969 159.789062 154.167969 159.789062 154.167969 L 125.324219 115.550781 C 125.324219 115.550781 82.371094 153.820312 143.648438 222.496094 C 208.789062 295.453125 247.886719 252.898438 247.886719 252.898438 L 211.5 212.109375 " fill-opacity="1" fill-rule="nonzero"/><g clip-path="url(#4c9b71eb12)"><path fill="#bd8f53" d="M 266.132812 239.15625 L 256.617188 247.722656 L 220.191406 207.332031 L 229.695312 198.773438 L 266.132812 239.15625 " fill-opacity="1" fill-rule="nonzero"/></g><g clip-path="url(#9e518b44ba)"><path fill="#bd8f53" d="M 177.738281 141.136719 L 168.242188 149.707031 L 131.796875 109.308594 L 141.289062 100.75 L 177.738281 141.136719 " fill-opacity="1" fill-rule="nonzero"/></g></svg>